<?xml version="1.0" encoding="UTF-8" standalone="no"?>
<!DOCTYPE svg PUBLIC "-//W3C//DTD SVG 1.1//EN" "http://www.w3.org/Graphics/SVG/1.1/DTD/svg11.dtd">
<svg width="100%" height="100%" viewBox="0 0 694 146" version="1.1" xmlns="http://www.w3.org/2000/svg" xmlns:xlink="http://www.w3.org/1999/xlink" xml:space="preserve" xmlns:serif="http://www.serif.com/" style="fill-rule:evenodd;clip-rule:evenodd;stroke-linejoin:round;stroke-miterlimit:2;">
    <g id="source-77">
    </g>
    <g id="source-128">
    </g>
    <g id="source-203">
    </g>
    <g id="source-206">
    </g>
    <g id="source-209">
    </g>
    <g id="source-242">
    </g>
    <g id="source-245">
    </g>
    <g id="source-266">
    </g>
    <g id="source-269">
    </g>
    <g id="source-272">
    </g>
    <g id="source-293">
    </g>
    <g id="Artboard1" transform="matrix(0.904177,0,0,0.49359,-97.178885,-137.743619)">
        <rect x="107.478" y="279.065" width="767.429" height="294.15" style="fill:none;"/>
        <g transform="matrix(1.56897,0,0,3.074777,-199.636343,-825.425725)">
            <path d="M489.585,365.801C514.945,365.801 535.503,385.018 535.503,408.722L535.503,408.724C535.503,432.428 514.945,451.645 489.585,451.645L245.789,451.645C220.429,451.645 199.871,432.428 199.871,408.724L199.871,408.722C199.871,385.018 220.429,365.801 245.789,365.801L489.585,365.801Z" style="fill:rgb(88,89,91);"/>
        </g>
        <g transform="matrix(1.457666,0,0,2.424574,85.908564,-559.672976)">
            <path d="M496.53,365.801C518.054,365.801 535.503,385.018 535.503,408.723L535.503,408.723C535.503,432.428 518.054,451.645 496.53,451.645L238.844,451.645C217.32,451.645 199.871,432.428 199.871,408.723L199.871,408.723C199.871,385.018 217.32,365.801 238.844,365.801L496.53,365.801Z" style="fill:rgb(255,242,0);"/>
        </g>
        <g transform="matrix(8.873329,0,0,16.783422,-1096.567351,-6685.30696)">
            <path d="M147.654,420.027L147.654,428.025L145.415,428.025L145.415,422.459L143.857,428.025L142.562,428.025L140.962,422.553L140.962,428.025L140.183,428.025L140.183,420.027L142.538,420.027L143.909,424.855L145.275,420.027L147.654,420.027Z" style="fill:rgb(0,174,239);fill-rule:nonzero;"/>
            <path d="M155.195,420.027L153.197,422.553L156.144,428.025L153.56,428.025L151.685,424.521L151.351,424.896L151.351,428.025L149.031,428.025L149.031,420.027L151.351,420.027L151.351,423.59L154.105,420.027L155.195,420.027Z" style="fill:rgb(0,174,239);fill-rule:nonzero;"/>
            <path d="M164.171,420.027L164.171,428.025L161.933,428.025L161.933,422.459L160.374,428.025L159.079,428.025L157.48,422.553L157.48,428.025L156.7,428.025L156.7,420.027L159.056,420.027L160.427,424.855L161.792,420.027L164.171,420.027Z" style="fill:rgb(0,174,239);fill-rule:nonzero;"/>
        </g>
        <g transform="matrix(6.478472,0,0,12.253679,-494.013355,-4764.181478)">
            <path d="M145.439,420.027L145.439,420.83L142.538,420.83L142.538,423.496L144.999,423.496L144.999,424.299L142.538,424.299L142.538,428.025L140.218,428.025L140.218,420.027L145.439,420.027Z" style="fill:rgb(88,89,91);fill-rule:nonzero;"/>
            <path d="M147.226,419.828C147.89,419.828 148.222,420.086 148.222,420.602C148.222,421.117 147.89,421.375 147.226,421.375C146.562,421.375 146.23,421.117 146.23,420.602C146.23,420.086 146.562,419.828 147.226,419.828ZM146.142,428.025L146.142,422.125C146.81,422.125 147.523,422.072 148.281,421.967L148.281,428.025L146.142,428.025Z" style="fill:rgb(88,89,91);fill-rule:nonzero;"/>
            <path d="M149.47,428.025L149.47,420.027C149.818,420.027 150.531,419.986 151.609,419.904L151.609,422.746C152.007,422.227 152.45,421.967 152.939,421.967C154.337,421.967 155.036,422.936 155.036,424.873C155.036,427.061 154.204,428.154 152.54,428.154C151.755,428.154 151.085,427.785 150.531,427.047L150.003,428.025L149.47,428.025ZM152.277,422.828C151.804,422.828 151.568,423.512 151.568,424.879C151.568,426.488 151.798,427.293 152.259,427.293C152.661,427.293 152.863,426.873 152.863,426.033L152.898,424.586L152.857,423.771C152.794,423.143 152.601,422.828 152.277,422.828Z" style="fill:rgb(88,89,91);fill-rule:nonzero;"/>
            <path d="M160.175,425.863L161.036,426.115C160.947,427.478 160.142,428.16 158.622,428.16C156.654,428.16 155.669,427.178 155.669,425.213C155.669,424.26 155.931,423.478 156.454,422.869C156.978,422.26 157.648,421.955 158.464,421.955C160.171,421.955 161.025,423.057 161.025,425.26L157.907,425.26C157.907,426.807 158.3,427.58 159.085,427.58C159.82,427.58 160.187,427.143 160.187,426.268C160.187,426.15 160.183,426.016 160.175,425.863ZM157.902,424.598L159.179,424.598C159.179,423.223 158.972,422.535 158.558,422.535C158.183,422.535 157.972,423.045 157.925,424.064L157.902,424.598Z" style="fill:rgb(88,89,91);fill-rule:nonzero;"/>
            <path d="M166.187,424.264L164.722,424.264C164.773,424.033 164.818,423.863 164.857,423.754C164.911,423.594 164.939,423.449 164.939,423.32C164.939,423.07 164.849,422.945 164.669,422.945C164.532,422.945 164.402,423.11 164.277,423.44C164.152,423.77 164.089,424.119 164.089,424.486L164.089,428.025L161.95,428.025L161.95,422.119L162.366,422.125C162.859,422.125 163.433,422.072 164.089,421.967L164.089,422.939C164.437,422.291 164.863,421.967 165.366,421.967C166.054,421.967 166.398,422.346 166.398,423.103C166.398,423.303 166.365,423.531 166.298,423.789C166.275,423.895 166.238,424.053 166.187,424.264Z" style="fill:rgb(88,89,91);fill-rule:nonzero;"/>
            <path d="M172.784,420.027L172.784,420.83L170.822,420.83L170.822,428.025L168.361,428.025L168.361,420.83L166.386,420.83L166.386,420.027L172.784,420.027Z" style="fill:rgb(88,89,91);fill-rule:nonzero;"/>
            <path d="M177.519,425.863L178.38,426.115C178.29,427.478 177.486,428.16 175.966,428.16C173.997,428.16 173.013,427.178 173.013,425.213C173.013,424.26 173.275,423.478 173.798,422.869C174.322,422.26 174.991,421.955 175.808,421.955C177.515,421.955 178.368,423.057 178.368,425.26L175.251,425.26C175.251,426.807 175.644,427.58 176.429,427.58C177.163,427.58 177.531,427.143 177.531,426.268C177.531,426.15 177.527,426.016 177.519,425.863ZM175.245,424.598L176.523,424.598C176.523,423.223 176.316,422.535 175.902,422.535C175.527,422.535 175.316,423.045 175.269,424.064L175.245,424.598Z" style="fill:rgb(88,89,91);fill-rule:nonzero;"/>
            <path d="M183.478,425.389L184.38,425.664L184.386,425.904C184.386,427.404 183.566,428.154 181.925,428.154C179.98,428.154 179.007,427.168 179.007,425.195C179.007,424.207 179.29,423.419 179.857,422.831C180.423,422.243 181.183,421.949 182.136,421.949C183.507,421.949 184.193,422.57 184.193,423.812L183.191,424.299L183.202,423.736C183.202,422.893 182.919,422.471 182.353,422.471C181.603,422.471 181.228,423.299 181.228,424.955C181.228,425.978 181.308,426.681 181.468,427.061C181.628,427.442 181.925,427.633 182.359,427.633C183.152,427.633 183.548,427.119 183.548,426.092C183.548,425.947 183.525,425.713 183.478,425.389Z" style="fill:rgb(88,89,91);fill-rule:nonzero;"/>
            <path d="M185.118,428.025L185.118,420.027C185.751,420.027 186.464,419.986 187.257,419.904L187.257,423.133C187.718,422.355 188.368,421.967 189.208,421.967C190.2,421.967 190.697,422.412 190.697,423.303L190.697,428.025L188.558,428.025L188.558,423.537C188.558,423.197 188.445,423.027 188.218,423.027C187.984,423.027 187.765,423.245 187.562,423.681C187.359,424.116 187.257,424.584 187.257,425.084L187.257,428.025L185.118,428.025Z" style="fill:rgb(88,89,91);fill-rule:nonzero;"/>
            <path d="M197.482,428.025L195.343,428.025L195.343,423.689C195.343,423.248 195.22,423.027 194.974,423.027C194.724,423.027 194.507,423.202 194.324,423.552C194.14,423.901 194.048,424.314 194.048,424.791L194.048,428.025L191.909,428.025L191.909,422.107C192.644,422.107 193.357,422.059 194.048,421.961L194.048,423.068C194.579,422.334 195.228,421.967 195.993,421.967C196.986,421.967 197.482,422.471 197.482,423.478L197.482,428.025Z" style="fill:rgb(88,89,91);fill-rule:nonzero;"/>
            <path d="M201.343,421.967C203.296,421.967 204.273,422.998 204.273,425.061C204.273,427.123 203.296,428.154 201.343,428.154C199.386,428.154 198.407,427.123 198.407,425.061C198.407,422.998 199.386,421.967 201.343,421.967ZM201.337,422.488C200.865,422.488 200.628,423.346 200.628,425.061C200.628,426.775 200.865,427.633 201.337,427.633C201.814,427.633 202.052,426.775 202.052,425.061C202.052,423.346 201.814,422.488 201.337,422.488Z" style="fill:rgb(88,89,91);fill-rule:nonzero;"/>
        </g>
    </g>
</svg>
